<svg width="512" height="565" viewBox="0 0 512 565" fill="none" xmlns="http://www.w3.org/2000/svg">
<path fill-rule="evenodd" clip-rule="evenodd" d="M196.103 1.13976C126.588 7.9457 63.0109 44.7307 27.3295 98.7836C4.48442 133.385 -3.83423 170.821 2.90618 208.691C9.79784 247.396 33.5899 284.51 68.5808 311.149C73.3287 314.772 96.9694 329.712 185.121 384.837C224.025 409.167 233.04 416.006 237.4 424.509C240.662 430.868 240.964 441.869 238.038 447.511C229.305 464.319 202.902 468.093 177.013 456.23C149.88 443.802 124.964 417.473 112.121 387.665C108.576 379.445 106.695 376.565 104.42 375.868C102.763 375.361 86.3492 372.909 67.9495 370.416C49.5498 367.931 26.8692 364.768 17.551 363.393C8.23275 362.026 0.387566 361.118 0.124525 361.381C-1.05916 362.565 6.47038 394.556 11.067 407.898C24.0941 445.67 41.5074 473.308 69.3962 500.492C97.1076 527.505 123.767 543.879 158.554 555.262C217.047 574.397 272.588 562.39 311.045 522.297C321.698 511.191 327.643 503.116 332.976 492.483C361.075 436.49 345.096 370.489 294.164 332.178C288.844 328.173 251.815 304.527 211.885 279.624C125.378 225.683 130.915 229.346 123.944 221.435C110.819 206.535 105.104 187.11 106.294 161.411C107.432 136.759 113.054 115.828 124.812 92.4972C134.42 73.434 145.356 58.5924 161.94 42.1003C177.335 26.7985 191.75 16.0405 208.466 7.38018C214.496 4.25668 219.441 1.27128 219.448 0.75179C219.461 -0.379246 209.991 -0.221427 196.103 1.13976ZM274.14 2.94153C246.245 8.00488 222.657 20.3148 203.139 40.0027C184.088 59.2237 173.028 79.6941 167.78 105.438C159.494 146.11 172.429 188.293 202.574 218.904C213.431 229.925 221.598 235.751 257.339 257.931C369.979 327.858 379.35 333.875 386.255 340.7C403.366 357.62 410.067 387.665 404.299 421.589C394.725 477.937 356.61 529.182 302.733 558.155C297.229 561.114 292.718 563.955 292.711 564.468C292.678 565.921 314.412 564.231 331.832 561.423C418.964 547.358 494.049 482.797 509.246 408.865C510.627 402.138 511.449 392.491 511.442 382.989C511.429 342.186 496.173 305.29 466.423 274.107C447.839 254.63 448.155 254.853 357.715 198.67C284.182 152.988 280.466 150.331 274.68 139.317C267.209 125.113 275.107 108.634 291.942 103.308C299.544 100.901 317.983 102.335 329.004 106.195C357.031 116.006 387.425 146.715 400.354 178.291C402.958 184.657 405.325 188.563 406.95 189.174C408.344 189.7 416.866 191.062 425.895 192.193C434.924 193.33 457.808 196.322 476.754 198.841C495.693 201.359 511.488 203.128 511.85 202.767C513.113 201.504 506.116 170.611 501.598 157.551C476.793 85.7175 420.726 30.4744 350.139 8.30079C327.926 1.32388 295.631 -0.957915 274.14 2.94153ZM39.9883 149.437C31.9327 153.816 33.0572 165.127 41.9217 168.921L47.1299 171.157L66.5291 230.99C77.202 263.895 86.4347 291.454 87.0528 292.23C87.671 293 98.186 299.819 110.424 307.381C172.449 345.698 193.551 359.336 193.196 360.895C192.466 364.071 195.84 369.857 199.529 371.764C208.952 376.637 219.342 366.326 214.371 357.035C213.661 355.7 211.372 353.727 209.301 352.655C206.204 351.057 204.652 350.965 200.667 352.162L195.807 353.615L149.242 324.918C123.629 309.13 100.1 294.597 96.9563 292.625C91.5245 289.205 91.0445 288.416 87.0594 276.258C84.7578 269.235 83.1861 263.172 83.5675 262.79C83.9489 262.409 101.244 272.674 122.004 285.602L159.751 309.117L174.001 304.599C181.839 302.12 189.191 300.338 190.349 300.641C191.5 300.937 205.901 309.367 222.354 319.362C249.98 336.15 252.262 337.807 252.275 341.095C252.295 346.112 254.123 348.94 258.529 350.761C265.947 353.839 273.752 348.848 273.752 341.029C273.752 332.987 264.625 327.956 257.22 331.915C255.307 332.941 253.965 332.698 251.308 330.837C242.996 325.03 191.651 293.979 190.355 293.979C189.566 293.979 182.471 296.011 174.586 298.497L160.25 303.008L132.092 285.457C116.605 275.804 98.9554 264.875 92.8726 261.166C86.7832 257.464 81.1541 253.65 80.3584 252.69C78.8065 250.809 73.9994 236.606 60.8474 194.974C52.7918 169.473 52.5748 168.448 54.5476 165.107C57.6252 159.892 57.0925 155.414 52.897 151.212C48.8528 147.168 45.111 146.655 39.9883 149.437ZM41.7441 155.296C38.1273 158.913 41.3495 164.495 46.6038 163.72C50.4376 163.147 52.5682 159.55 50.773 156.677C49.0698 153.968 43.8682 153.172 41.7441 155.296ZM67.8509 170.151C63.1424 174.859 62.9189 180.481 67.259 184.828C68.9688 186.531 71.8162 187.925 73.5917 187.925C77.3664 187.925 77.3072 187.807 91.6363 221.896L101.408 245.141L122.241 258.174C141.042 269.938 143.232 270.997 144.665 269.077C146.395 266.762 144.146 265.085 117.684 248.915L106.182 241.893L102.092 232.266C83.4294 188.366 82.7324 186.367 84.8762 182.737C87.8156 177.759 87.3553 174.313 83.1993 170.151C80.6807 167.632 78.241 166.462 75.5251 166.462C72.8092 166.462 70.3695 167.632 67.8509 170.151ZM71.8294 173.945C66.6343 179.14 73.8942 185.88 79.3655 180.935C82.4628 178.127 82.4562 177.18 79.3129 174.037C76.1695 170.887 74.9004 170.874 71.8294 173.945ZM304.114 196.513C299.162 201.458 299.116 205.903 303.956 210.75C307.757 214.544 312.4 215.464 316.556 213.242C318.331 212.295 326.762 216.97 357.82 236.126C379.291 249.363 402.32 263.533 409.001 267.61C415.682 271.681 421.713 275.732 422.403 276.606C423.659 278.191 431.577 301.219 431.577 303.277C431.577 303.882 430.012 303.337 428.105 302.068C426.191 300.798 409.106 290.211 390.128 278.533L355.624 257.306L340.499 261.784C332.18 264.25 324.98 266.045 324.499 265.782C320.87 263.796 275.784 235.968 271.543 233.101C267.229 230.181 266.177 228.721 266.177 225.683C266.177 217.108 253.945 212.249 247.494 218.259C238.722 226.433 246.639 239.321 258.305 235.849C263.001 234.455 263.139 234.528 293.717 253.341L324.407 272.227L338.539 267.966C346.306 265.618 353.316 263.698 354.118 263.691C355.367 263.678 373.925 274.942 424.244 306.25L435.226 313.082L447.089 349.295C458.861 385.205 458.939 385.541 456.631 388.526C453.278 392.866 453.619 399.468 457.401 403.249C460.925 406.767 465.417 407.195 470.625 404.499C474.577 402.46 475.767 400.284 475.767 395.122C475.767 390.657 473.387 387.507 468.126 385.008C463.911 383.002 463.793 382.7 445.991 328.068L428.098 273.147L400.479 255.991C383.072 245.18 365.665 234.376 348.245 223.586C324.223 208.705 323.599 208.211 322.632 203.339C321.435 197.269 318.469 194.369 312.479 193.396C308.612 192.771 307.402 193.219 304.114 196.513ZM307.902 199.847C305.883 202.287 306.678 206.903 309.421 208.619C314.366 211.723 319.403 203.135 314.668 199.676C311.742 197.539 309.776 197.591 307.902 199.847ZM249.763 223.276C247.725 227.084 250.237 230.852 254.813 230.852C259.39 230.852 261.902 227.084 259.864 223.276C258.983 221.633 257.22 220.751 254.813 220.751C252.407 220.751 250.644 221.633 249.763 223.276ZM370.933 297.182C370.065 298.227 369.571 299.286 369.848 299.523C370.117 299.766 378.298 304.935 388.017 311.011C397.737 317.087 406.667 322.985 407.857 324.116C410.31 326.451 424.941 362.256 428.973 375.776L431.629 384.712L428.446 387.895C421.653 394.688 426.283 406.346 435.766 406.346C446.774 406.346 451.107 389.973 441.105 386.165C438.902 385.33 437.469 382.884 435.391 376.446C430.459 361.112 414.867 322.446 412.776 320.348C411.27 318.829 379.475 298.964 373.326 295.696C372.886 295.459 371.807 296.13 370.933 297.182ZM258.614 337.518C256.655 339.885 257.898 345.205 260.66 346.263C263.389 347.309 268.702 343.778 268.702 340.917C268.702 336.025 261.784 333.697 258.614 337.518ZM200.634 358.869C199.772 359.908 199.253 362.065 199.476 363.663C199.818 366.07 200.66 366.576 204.31 366.576C208.518 366.576 208.729 366.366 208.729 362.157C208.729 358.343 208.282 357.686 205.46 357.357C203.665 357.153 201.495 357.83 200.634 358.869ZM432.3 391.919C431.208 393.011 430.314 394.674 430.314 395.615C430.314 396.555 431.208 398.219 432.3 399.31C433.392 400.402 435.055 401.296 435.996 401.296C436.936 401.296 438.6 400.402 439.691 399.31C440.783 398.219 441.677 396.555 441.677 395.615C441.677 394.674 440.783 393.011 439.691 391.919C438.6 390.828 436.936 389.933 435.996 389.933C435.055 389.933 433.392 390.828 432.3 391.919ZM461.34 391.919C460.248 393.011 459.354 394.674 459.354 395.615C459.354 397.778 462.806 401.296 464.93 401.296C466.837 401.296 470.717 397.272 470.717 395.292C470.717 393.346 467.094 389.933 465.035 389.933C464.095 389.933 462.431 390.828 461.34 391.919Z" fill="black"/>
</svg>
